<mxfile host="app.diagrams.net" modified="2022-01-22T12:42:41.407Z" agent="5.0 (Windows NT 10.0; Win64; x64) AppleWebKit/537.36 (KHTML, like Gecko) Chrome/97.0.4692.71 Safari/537.36" etag="O0Ca20hHgpvAigSBDwC5" version="16.4.3" type="github">
  <diagram id="Mszt_t1WdquDGA5F1F1-" name="heap">
    <mxGraphModel dx="1422" dy="762" grid="1" gridSize="10" guides="1" tooltips="1" connect="1" arrows="1" fold="1" page="1" pageScale="1" pageWidth="827" pageHeight="1169" math="0" shadow="0">
      <root>
        <mxCell id="0" />
        <mxCell id="1" parent="0" />
        <mxCell id="v3zuQs5FmdUC1LHhwogQ-36" value="79" style="ellipse;whiteSpace=wrap;html=1;aspect=fixed;" parent="1" vertex="1">
          <mxGeometry x="399" y="80" width="40" height="40" as="geometry" />
        </mxCell>
        <mxCell id="v3zuQs5FmdUC1LHhwogQ-37" value="66" style="ellipse;whiteSpace=wrap;html=1;aspect=fixed;" parent="1" vertex="1">
          <mxGeometry x="242" y="160" width="40" height="40" as="geometry" />
        </mxCell>
        <mxCell id="v3zuQs5FmdUC1LHhwogQ-38" value="43" style="ellipse;whiteSpace=wrap;html=1;aspect=fixed;" parent="1" vertex="1">
          <mxGeometry x="519" y="160" width="40" height="40" as="geometry" />
        </mxCell>
        <mxCell id="v3zuQs5FmdUC1LHhwogQ-39" value="83" style="ellipse;whiteSpace=wrap;html=1;aspect=fixed;" parent="1" vertex="1">
          <mxGeometry x="163" y="240" width="40" height="40" as="geometry" />
        </mxCell>
        <mxCell id="v3zuQs5FmdUC1LHhwogQ-40" value="30" style="ellipse;whiteSpace=wrap;html=1;aspect=fixed;" parent="1" vertex="1">
          <mxGeometry x="320" y="240" width="40" height="40" as="geometry" />
        </mxCell>
        <mxCell id="v3zuQs5FmdUC1LHhwogQ-41" value="87" style="ellipse;whiteSpace=wrap;html=1;aspect=fixed;" parent="1" vertex="1">
          <mxGeometry x="479" y="240" width="40" height="40" as="geometry" />
        </mxCell>
        <mxCell id="v3zuQs5FmdUC1LHhwogQ-42" value="38" style="ellipse;whiteSpace=wrap;html=1;aspect=fixed;" parent="1" vertex="1">
          <mxGeometry x="559" y="240" width="40" height="40" as="geometry" />
        </mxCell>
        <mxCell id="v3zuQs5FmdUC1LHhwogQ-43" value="55" style="ellipse;whiteSpace=wrap;html=1;aspect=fixed;" parent="1" vertex="1">
          <mxGeometry x="123" y="320" width="40" height="40" as="geometry" />
        </mxCell>
        <mxCell id="v3zuQs5FmdUC1LHhwogQ-61" value="79" style="ellipse;whiteSpace=wrap;html=1;aspect=fixed;" parent="1" vertex="1">
          <mxGeometry x="399" y="80" width="40" height="40" as="geometry" />
        </mxCell>
        <mxCell id="v3zuQs5FmdUC1LHhwogQ-62" value="79" style="ellipse;whiteSpace=wrap;html=1;aspect=fixed;" parent="1" vertex="1">
          <mxGeometry x="399" y="80" width="40" height="40" as="geometry" />
        </mxCell>
        <mxCell id="v3zuQs5FmdUC1LHhwogQ-63" value="66" style="ellipse;whiteSpace=wrap;html=1;aspect=fixed;" parent="1" vertex="1">
          <mxGeometry x="242" y="160" width="40" height="40" as="geometry" />
        </mxCell>
        <mxCell id="v3zuQs5FmdUC1LHhwogQ-64" value="43" style="ellipse;whiteSpace=wrap;html=1;aspect=fixed;" parent="1" vertex="1">
          <mxGeometry x="519" y="160" width="40" height="40" as="geometry" />
        </mxCell>
        <mxCell id="v3zuQs5FmdUC1LHhwogQ-65" value="87" style="ellipse;whiteSpace=wrap;html=1;aspect=fixed;" parent="1" vertex="1">
          <mxGeometry x="479" y="240" width="40" height="40" as="geometry" />
        </mxCell>
        <mxCell id="v3zuQs5FmdUC1LHhwogQ-66" value="38" style="ellipse;whiteSpace=wrap;html=1;aspect=fixed;" parent="1" vertex="1">
          <mxGeometry x="559" y="240" width="40" height="40" as="geometry" />
        </mxCell>
        <mxCell id="v3zuQs5FmdUC1LHhwogQ-75" value="" style="group" parent="1" vertex="1" connectable="0">
          <mxGeometry x="123" y="80" width="476" height="283" as="geometry" />
        </mxCell>
        <mxCell id="v3zuQs5FmdUC1LHhwogQ-50" style="rounded=0;orthogonalLoop=1;jettySize=auto;html=1;exitX=0.5;exitY=1;exitDx=0;exitDy=0;entryX=0.5;entryY=0;entryDx=0;entryDy=0;" parent="v3zuQs5FmdUC1LHhwogQ-75" source="v3zuQs5FmdUC1LHhwogQ-36" target="v3zuQs5FmdUC1LHhwogQ-37" edge="1">
          <mxGeometry relative="1" as="geometry" />
        </mxCell>
        <mxCell id="v3zuQs5FmdUC1LHhwogQ-51" style="edgeStyle=none;rounded=0;orthogonalLoop=1;jettySize=auto;html=1;exitX=0.5;exitY=1;exitDx=0;exitDy=0;entryX=0.5;entryY=0;entryDx=0;entryDy=0;" parent="v3zuQs5FmdUC1LHhwogQ-75" source="v3zuQs5FmdUC1LHhwogQ-36" target="v3zuQs5FmdUC1LHhwogQ-38" edge="1">
          <mxGeometry relative="1" as="geometry" />
        </mxCell>
        <mxCell id="v3zuQs5FmdUC1LHhwogQ-52" style="edgeStyle=none;rounded=0;orthogonalLoop=1;jettySize=auto;html=1;exitX=0.5;exitY=1;exitDx=0;exitDy=0;entryX=0.5;entryY=0;entryDx=0;entryDy=0;" parent="v3zuQs5FmdUC1LHhwogQ-75" source="v3zuQs5FmdUC1LHhwogQ-37" target="v3zuQs5FmdUC1LHhwogQ-39" edge="1">
          <mxGeometry relative="1" as="geometry" />
        </mxCell>
        <mxCell id="v3zuQs5FmdUC1LHhwogQ-53" style="edgeStyle=none;rounded=0;orthogonalLoop=1;jettySize=auto;html=1;exitX=0.5;exitY=1;exitDx=0;exitDy=0;entryX=0.5;entryY=0;entryDx=0;entryDy=0;" parent="v3zuQs5FmdUC1LHhwogQ-75" source="v3zuQs5FmdUC1LHhwogQ-37" target="v3zuQs5FmdUC1LHhwogQ-40" edge="1">
          <mxGeometry relative="1" as="geometry" />
        </mxCell>
        <mxCell id="v3zuQs5FmdUC1LHhwogQ-54" style="edgeStyle=none;rounded=0;orthogonalLoop=1;jettySize=auto;html=1;exitX=0.5;exitY=1;exitDx=0;exitDy=0;entryX=0.5;entryY=0;entryDx=0;entryDy=0;" parent="v3zuQs5FmdUC1LHhwogQ-75" source="v3zuQs5FmdUC1LHhwogQ-38" target="v3zuQs5FmdUC1LHhwogQ-41" edge="1">
          <mxGeometry relative="1" as="geometry" />
        </mxCell>
        <mxCell id="v3zuQs5FmdUC1LHhwogQ-55" style="edgeStyle=none;rounded=0;orthogonalLoop=1;jettySize=auto;html=1;exitX=0.5;exitY=1;exitDx=0;exitDy=0;entryX=0.5;entryY=0;entryDx=0;entryDy=0;" parent="v3zuQs5FmdUC1LHhwogQ-75" source="v3zuQs5FmdUC1LHhwogQ-38" target="v3zuQs5FmdUC1LHhwogQ-42" edge="1">
          <mxGeometry relative="1" as="geometry" />
        </mxCell>
        <mxCell id="v3zuQs5FmdUC1LHhwogQ-56" style="edgeStyle=none;rounded=0;orthogonalLoop=1;jettySize=auto;html=1;exitX=0.5;exitY=1;exitDx=0;exitDy=0;entryX=0.5;entryY=0;entryDx=0;entryDy=0;" parent="v3zuQs5FmdUC1LHhwogQ-75" source="v3zuQs5FmdUC1LHhwogQ-39" target="v3zuQs5FmdUC1LHhwogQ-43" edge="1">
          <mxGeometry relative="1" as="geometry" />
        </mxCell>
        <mxCell id="v3zuQs5FmdUC1LHhwogQ-44" value="91" style="ellipse;whiteSpace=wrap;html=1;aspect=fixed;" parent="v3zuQs5FmdUC1LHhwogQ-75" vertex="1">
          <mxGeometry x="80" y="240" width="40" height="40" as="geometry" />
        </mxCell>
        <mxCell id="v3zuQs5FmdUC1LHhwogQ-45" value="72" style="ellipse;whiteSpace=wrap;html=1;aspect=fixed;" parent="v3zuQs5FmdUC1LHhwogQ-75" vertex="1">
          <mxGeometry x="156" y="243" width="40" height="40" as="geometry" />
        </mxCell>
        <mxCell id="v3zuQs5FmdUC1LHhwogQ-46" value="49" style="ellipse;whiteSpace=wrap;html=1;aspect=fixed;" parent="v3zuQs5FmdUC1LHhwogQ-75" vertex="1">
          <mxGeometry x="236" y="243" width="40" height="40" as="geometry" />
        </mxCell>
        <mxCell id="v3zuQs5FmdUC1LHhwogQ-47" value="9" style="ellipse;whiteSpace=wrap;html=1;aspect=fixed;" parent="v3zuQs5FmdUC1LHhwogQ-75" vertex="1">
          <mxGeometry x="316" y="240" width="40" height="40" as="geometry" />
        </mxCell>
        <mxCell id="v3zuQs5FmdUC1LHhwogQ-67" value="79" style="ellipse;whiteSpace=wrap;html=1;aspect=fixed;" parent="v3zuQs5FmdUC1LHhwogQ-75" vertex="1">
          <mxGeometry x="276" width="40" height="40" as="geometry" />
        </mxCell>
        <mxCell id="v3zuQs5FmdUC1LHhwogQ-68" value="66" style="ellipse;whiteSpace=wrap;html=1;aspect=fixed;" parent="v3zuQs5FmdUC1LHhwogQ-75" vertex="1">
          <mxGeometry x="119" y="80" width="40" height="40" as="geometry" />
        </mxCell>
        <mxCell id="v3zuQs5FmdUC1LHhwogQ-69" value="43" style="ellipse;whiteSpace=wrap;html=1;aspect=fixed;" parent="v3zuQs5FmdUC1LHhwogQ-75" vertex="1">
          <mxGeometry x="396" y="80" width="40" height="40" as="geometry" />
        </mxCell>
        <mxCell id="v3zuQs5FmdUC1LHhwogQ-70" value="87" style="ellipse;whiteSpace=wrap;html=1;aspect=fixed;" parent="v3zuQs5FmdUC1LHhwogQ-75" vertex="1">
          <mxGeometry x="356" y="160" width="40" height="40" as="geometry" />
        </mxCell>
        <mxCell id="v3zuQs5FmdUC1LHhwogQ-71" value="38" style="ellipse;whiteSpace=wrap;html=1;aspect=fixed;" parent="v3zuQs5FmdUC1LHhwogQ-75" vertex="1">
          <mxGeometry x="436" y="160" width="40" height="40" as="geometry" />
        </mxCell>
        <mxCell id="v3zuQs5FmdUC1LHhwogQ-72" value="30" style="ellipse;whiteSpace=wrap;html=1;aspect=fixed;" parent="v3zuQs5FmdUC1LHhwogQ-75" vertex="1">
          <mxGeometry x="197" y="160" width="40" height="40" as="geometry" />
        </mxCell>
        <mxCell id="v3zuQs5FmdUC1LHhwogQ-73" value="83" style="ellipse;whiteSpace=wrap;html=1;aspect=fixed;" parent="v3zuQs5FmdUC1LHhwogQ-75" vertex="1">
          <mxGeometry x="40" y="160" width="40" height="40" as="geometry" />
        </mxCell>
        <mxCell id="v3zuQs5FmdUC1LHhwogQ-74" value="55" style="ellipse;whiteSpace=wrap;html=1;aspect=fixed;" parent="v3zuQs5FmdUC1LHhwogQ-75" vertex="1">
          <mxGeometry y="240" width="40" height="40" as="geometry" />
        </mxCell>
        <mxCell id="v3zuQs5FmdUC1LHhwogQ-57" style="edgeStyle=none;rounded=0;orthogonalLoop=1;jettySize=auto;html=1;exitX=0.5;exitY=1;exitDx=0;exitDy=0;entryX=0.5;entryY=0;entryDx=0;entryDy=0;" parent="1" source="v3zuQs5FmdUC1LHhwogQ-39" target="v3zuQs5FmdUC1LHhwogQ-44" edge="1">
          <mxGeometry relative="1" as="geometry" />
        </mxCell>
        <mxCell id="v3zuQs5FmdUC1LHhwogQ-58" style="edgeStyle=none;rounded=0;orthogonalLoop=1;jettySize=auto;html=1;exitX=0.5;exitY=1;exitDx=0;exitDy=0;entryX=0.5;entryY=0;entryDx=0;entryDy=0;" parent="1" source="v3zuQs5FmdUC1LHhwogQ-40" target="v3zuQs5FmdUC1LHhwogQ-45" edge="1">
          <mxGeometry relative="1" as="geometry" />
        </mxCell>
        <mxCell id="v3zuQs5FmdUC1LHhwogQ-59" value="" style="edgeStyle=none;rounded=0;orthogonalLoop=1;jettySize=auto;html=1;exitX=0.5;exitY=1;exitDx=0;exitDy=0;" parent="1" source="v3zuQs5FmdUC1LHhwogQ-40" target="v3zuQs5FmdUC1LHhwogQ-46" edge="1">
          <mxGeometry relative="1" as="geometry" />
        </mxCell>
        <mxCell id="v3zuQs5FmdUC1LHhwogQ-60" style="edgeStyle=none;rounded=0;orthogonalLoop=1;jettySize=auto;html=1;exitX=0.5;exitY=1;exitDx=0;exitDy=0;entryX=0.5;entryY=0;entryDx=0;entryDy=0;" parent="1" source="v3zuQs5FmdUC1LHhwogQ-41" target="v3zuQs5FmdUC1LHhwogQ-47" edge="1">
          <mxGeometry relative="1" as="geometry" />
        </mxCell>
        <mxCell id="v3zuQs5FmdUC1LHhwogQ-114" value="79" style="ellipse;whiteSpace=wrap;html=1;aspect=fixed;" parent="1" vertex="1">
          <mxGeometry x="916" y="80" width="40" height="40" as="geometry" />
        </mxCell>
        <mxCell id="v3zuQs5FmdUC1LHhwogQ-115" value="66" style="ellipse;whiteSpace=wrap;html=1;aspect=fixed;" parent="1" vertex="1">
          <mxGeometry x="759" y="160" width="40" height="40" as="geometry" />
        </mxCell>
        <mxCell id="v3zuQs5FmdUC1LHhwogQ-116" value="43" style="ellipse;whiteSpace=wrap;html=1;aspect=fixed;" parent="1" vertex="1">
          <mxGeometry x="1036" y="160" width="40" height="40" as="geometry" />
        </mxCell>
        <mxCell id="v3zuQs5FmdUC1LHhwogQ-117" value="83" style="ellipse;whiteSpace=wrap;html=1;aspect=fixed;" parent="1" vertex="1">
          <mxGeometry x="680" y="240" width="40" height="40" as="geometry" />
        </mxCell>
        <mxCell id="v3zuQs5FmdUC1LHhwogQ-118" value="30" style="ellipse;whiteSpace=wrap;html=1;aspect=fixed;" parent="1" vertex="1">
          <mxGeometry x="837" y="240" width="40" height="40" as="geometry" />
        </mxCell>
        <mxCell id="v3zuQs5FmdUC1LHhwogQ-119" value="87" style="ellipse;whiteSpace=wrap;html=1;aspect=fixed;" parent="1" vertex="1">
          <mxGeometry x="996" y="240" width="40" height="40" as="geometry" />
        </mxCell>
        <mxCell id="v3zuQs5FmdUC1LHhwogQ-120" value="38" style="ellipse;whiteSpace=wrap;html=1;aspect=fixed;" parent="1" vertex="1">
          <mxGeometry x="1076" y="240" width="40" height="40" as="geometry" />
        </mxCell>
        <mxCell id="v3zuQs5FmdUC1LHhwogQ-121" value="55" style="ellipse;whiteSpace=wrap;html=1;aspect=fixed;" parent="1" vertex="1">
          <mxGeometry x="640" y="320" width="40" height="40" as="geometry" />
        </mxCell>
        <mxCell id="v3zuQs5FmdUC1LHhwogQ-122" value="79" style="ellipse;whiteSpace=wrap;html=1;aspect=fixed;" parent="1" vertex="1">
          <mxGeometry x="916" y="80" width="40" height="40" as="geometry" />
        </mxCell>
        <mxCell id="v3zuQs5FmdUC1LHhwogQ-123" value="79" style="ellipse;whiteSpace=wrap;html=1;aspect=fixed;" parent="1" vertex="1">
          <mxGeometry x="916" y="80" width="40" height="40" as="geometry" />
        </mxCell>
        <mxCell id="v3zuQs5FmdUC1LHhwogQ-124" value="66" style="ellipse;whiteSpace=wrap;html=1;aspect=fixed;" parent="1" vertex="1">
          <mxGeometry x="759" y="160" width="40" height="40" as="geometry" />
        </mxCell>
        <mxCell id="v3zuQs5FmdUC1LHhwogQ-125" value="43" style="ellipse;whiteSpace=wrap;html=1;aspect=fixed;" parent="1" vertex="1">
          <mxGeometry x="1036" y="160" width="40" height="40" as="geometry" />
        </mxCell>
        <mxCell id="v3zuQs5FmdUC1LHhwogQ-126" value="87" style="ellipse;whiteSpace=wrap;html=1;aspect=fixed;" parent="1" vertex="1">
          <mxGeometry x="996" y="240" width="40" height="40" as="geometry" />
        </mxCell>
        <mxCell id="v3zuQs5FmdUC1LHhwogQ-127" value="38" style="ellipse;whiteSpace=wrap;html=1;aspect=fixed;" parent="1" vertex="1">
          <mxGeometry x="1076" y="240" width="40" height="40" as="geometry" />
        </mxCell>
        <mxCell id="v3zuQs5FmdUC1LHhwogQ-128" value="" style="group" parent="1" vertex="1" connectable="0">
          <mxGeometry x="640" y="80" width="476" height="283" as="geometry" />
        </mxCell>
        <mxCell id="v3zuQs5FmdUC1LHhwogQ-129" style="rounded=0;orthogonalLoop=1;jettySize=auto;html=1;exitX=0.5;exitY=1;exitDx=0;exitDy=0;entryX=0.5;entryY=0;entryDx=0;entryDy=0;" parent="v3zuQs5FmdUC1LHhwogQ-128" source="v3zuQs5FmdUC1LHhwogQ-114" target="v3zuQs5FmdUC1LHhwogQ-115" edge="1">
          <mxGeometry relative="1" as="geometry" />
        </mxCell>
        <mxCell id="v3zuQs5FmdUC1LHhwogQ-130" style="edgeStyle=none;rounded=0;orthogonalLoop=1;jettySize=auto;html=1;exitX=0.5;exitY=1;exitDx=0;exitDy=0;entryX=0.5;entryY=0;entryDx=0;entryDy=0;" parent="v3zuQs5FmdUC1LHhwogQ-128" source="v3zuQs5FmdUC1LHhwogQ-114" target="v3zuQs5FmdUC1LHhwogQ-116" edge="1">
          <mxGeometry relative="1" as="geometry" />
        </mxCell>
        <mxCell id="v3zuQs5FmdUC1LHhwogQ-131" style="edgeStyle=none;rounded=0;orthogonalLoop=1;jettySize=auto;html=1;exitX=0.5;exitY=1;exitDx=0;exitDy=0;entryX=0.5;entryY=0;entryDx=0;entryDy=0;" parent="v3zuQs5FmdUC1LHhwogQ-128" source="v3zuQs5FmdUC1LHhwogQ-115" target="v3zuQs5FmdUC1LHhwogQ-117" edge="1">
          <mxGeometry relative="1" as="geometry" />
        </mxCell>
        <mxCell id="v3zuQs5FmdUC1LHhwogQ-132" style="edgeStyle=none;rounded=0;orthogonalLoop=1;jettySize=auto;html=1;exitX=0.5;exitY=1;exitDx=0;exitDy=0;entryX=0.5;entryY=0;entryDx=0;entryDy=0;" parent="v3zuQs5FmdUC1LHhwogQ-128" source="v3zuQs5FmdUC1LHhwogQ-115" target="v3zuQs5FmdUC1LHhwogQ-118" edge="1">
          <mxGeometry relative="1" as="geometry" />
        </mxCell>
        <mxCell id="v3zuQs5FmdUC1LHhwogQ-133" style="edgeStyle=none;rounded=0;orthogonalLoop=1;jettySize=auto;html=1;exitX=0.5;exitY=1;exitDx=0;exitDy=0;entryX=0.5;entryY=0;entryDx=0;entryDy=0;" parent="v3zuQs5FmdUC1LHhwogQ-128" source="v3zuQs5FmdUC1LHhwogQ-116" target="v3zuQs5FmdUC1LHhwogQ-119" edge="1">
          <mxGeometry relative="1" as="geometry" />
        </mxCell>
        <mxCell id="v3zuQs5FmdUC1LHhwogQ-134" style="edgeStyle=none;rounded=0;orthogonalLoop=1;jettySize=auto;html=1;exitX=0.5;exitY=1;exitDx=0;exitDy=0;entryX=0.5;entryY=0;entryDx=0;entryDy=0;" parent="v3zuQs5FmdUC1LHhwogQ-128" source="v3zuQs5FmdUC1LHhwogQ-116" target="v3zuQs5FmdUC1LHhwogQ-120" edge="1">
          <mxGeometry relative="1" as="geometry" />
        </mxCell>
        <mxCell id="v3zuQs5FmdUC1LHhwogQ-135" style="edgeStyle=none;rounded=0;orthogonalLoop=1;jettySize=auto;html=1;exitX=0.5;exitY=1;exitDx=0;exitDy=0;entryX=0.5;entryY=0;entryDx=0;entryDy=0;" parent="v3zuQs5FmdUC1LHhwogQ-128" source="v3zuQs5FmdUC1LHhwogQ-117" target="v3zuQs5FmdUC1LHhwogQ-121" edge="1">
          <mxGeometry relative="1" as="geometry" />
        </mxCell>
        <mxCell id="v3zuQs5FmdUC1LHhwogQ-136" value="&lt;font color=&quot;#ff0000&quot;&gt;&lt;b&gt;83&lt;/b&gt;&lt;/font&gt;" style="ellipse;whiteSpace=wrap;html=1;aspect=fixed;" parent="v3zuQs5FmdUC1LHhwogQ-128" vertex="1">
          <mxGeometry x="80" y="240" width="40" height="40" as="geometry" />
        </mxCell>
        <mxCell id="v3zuQs5FmdUC1LHhwogQ-137" value="&lt;font color=&quot;#ff0000&quot;&gt;&lt;b&gt;30&lt;/b&gt;&lt;/font&gt;" style="ellipse;whiteSpace=wrap;html=1;aspect=fixed;" parent="v3zuQs5FmdUC1LHhwogQ-128" vertex="1">
          <mxGeometry x="156" y="243" width="40" height="40" as="geometry" />
        </mxCell>
        <mxCell id="v3zuQs5FmdUC1LHhwogQ-138" value="49" style="ellipse;whiteSpace=wrap;html=1;aspect=fixed;" parent="v3zuQs5FmdUC1LHhwogQ-128" vertex="1">
          <mxGeometry x="236" y="243" width="40" height="40" as="geometry" />
        </mxCell>
        <mxCell id="v3zuQs5FmdUC1LHhwogQ-139" value="9" style="ellipse;whiteSpace=wrap;html=1;aspect=fixed;" parent="v3zuQs5FmdUC1LHhwogQ-128" vertex="1">
          <mxGeometry x="316" y="240" width="40" height="40" as="geometry" />
        </mxCell>
        <mxCell id="v3zuQs5FmdUC1LHhwogQ-140" value="79" style="ellipse;whiteSpace=wrap;html=1;aspect=fixed;" parent="v3zuQs5FmdUC1LHhwogQ-128" vertex="1">
          <mxGeometry x="276" width="40" height="40" as="geometry" />
        </mxCell>
        <mxCell id="v3zuQs5FmdUC1LHhwogQ-141" value="66" style="ellipse;whiteSpace=wrap;html=1;aspect=fixed;" parent="v3zuQs5FmdUC1LHhwogQ-128" vertex="1">
          <mxGeometry x="119" y="80" width="40" height="40" as="geometry" />
        </mxCell>
        <mxCell id="v3zuQs5FmdUC1LHhwogQ-142" value="43" style="ellipse;whiteSpace=wrap;html=1;aspect=fixed;" parent="v3zuQs5FmdUC1LHhwogQ-128" vertex="1">
          <mxGeometry x="396" y="80" width="40" height="40" as="geometry" />
        </mxCell>
        <mxCell id="v3zuQs5FmdUC1LHhwogQ-143" value="87" style="ellipse;whiteSpace=wrap;html=1;aspect=fixed;fillColor=#d5e8d4;strokeColor=#82b366;" parent="v3zuQs5FmdUC1LHhwogQ-128" vertex="1">
          <mxGeometry x="356" y="160" width="40" height="40" as="geometry" />
        </mxCell>
        <mxCell id="v3zuQs5FmdUC1LHhwogQ-144" value="38" style="ellipse;whiteSpace=wrap;html=1;aspect=fixed;" parent="v3zuQs5FmdUC1LHhwogQ-128" vertex="1">
          <mxGeometry x="436" y="160" width="40" height="40" as="geometry" />
        </mxCell>
        <mxCell id="v3zuQs5FmdUC1LHhwogQ-145" value="72" style="ellipse;whiteSpace=wrap;html=1;aspect=fixed;fillColor=#d5e8d4;strokeColor=#82b366;" parent="v3zuQs5FmdUC1LHhwogQ-128" vertex="1">
          <mxGeometry x="197" y="160" width="40" height="40" as="geometry" />
        </mxCell>
        <mxCell id="v3zuQs5FmdUC1LHhwogQ-146" value="91" style="ellipse;whiteSpace=wrap;html=1;aspect=fixed;fillColor=#d5e8d4;strokeColor=#82b366;" parent="v3zuQs5FmdUC1LHhwogQ-128" vertex="1">
          <mxGeometry x="40" y="160" width="40" height="40" as="geometry" />
        </mxCell>
        <mxCell id="v3zuQs5FmdUC1LHhwogQ-147" value="55" style="ellipse;whiteSpace=wrap;html=1;aspect=fixed;" parent="v3zuQs5FmdUC1LHhwogQ-128" vertex="1">
          <mxGeometry y="240" width="40" height="40" as="geometry" />
        </mxCell>
        <mxCell id="v3zuQs5FmdUC1LHhwogQ-148" style="edgeStyle=none;rounded=0;orthogonalLoop=1;jettySize=auto;html=1;exitX=0.5;exitY=1;exitDx=0;exitDy=0;entryX=0.5;entryY=0;entryDx=0;entryDy=0;" parent="1" source="v3zuQs5FmdUC1LHhwogQ-117" target="v3zuQs5FmdUC1LHhwogQ-136" edge="1">
          <mxGeometry relative="1" as="geometry" />
        </mxCell>
        <mxCell id="v3zuQs5FmdUC1LHhwogQ-149" style="edgeStyle=none;rounded=0;orthogonalLoop=1;jettySize=auto;html=1;exitX=0.5;exitY=1;exitDx=0;exitDy=0;entryX=0.5;entryY=0;entryDx=0;entryDy=0;" parent="1" source="v3zuQs5FmdUC1LHhwogQ-118" target="v3zuQs5FmdUC1LHhwogQ-137" edge="1">
          <mxGeometry relative="1" as="geometry" />
        </mxCell>
        <mxCell id="v3zuQs5FmdUC1LHhwogQ-150" value="" style="edgeStyle=none;rounded=0;orthogonalLoop=1;jettySize=auto;html=1;exitX=0.5;exitY=1;exitDx=0;exitDy=0;" parent="1" source="v3zuQs5FmdUC1LHhwogQ-118" target="v3zuQs5FmdUC1LHhwogQ-138" edge="1">
          <mxGeometry relative="1" as="geometry" />
        </mxCell>
        <mxCell id="v3zuQs5FmdUC1LHhwogQ-151" style="edgeStyle=none;rounded=0;orthogonalLoop=1;jettySize=auto;html=1;exitX=0.5;exitY=1;exitDx=0;exitDy=0;entryX=0.5;entryY=0;entryDx=0;entryDy=0;" parent="1" source="v3zuQs5FmdUC1LHhwogQ-119" target="v3zuQs5FmdUC1LHhwogQ-139" edge="1">
          <mxGeometry relative="1" as="geometry" />
        </mxCell>
        <mxCell id="v3zuQs5FmdUC1LHhwogQ-152" value="79" style="ellipse;whiteSpace=wrap;html=1;aspect=fixed;" parent="1" vertex="1">
          <mxGeometry x="915" y="443" width="40" height="40" as="geometry" />
        </mxCell>
        <mxCell id="v3zuQs5FmdUC1LHhwogQ-153" value="66" style="ellipse;whiteSpace=wrap;html=1;aspect=fixed;" parent="1" vertex="1">
          <mxGeometry x="758" y="523" width="40" height="40" as="geometry" />
        </mxCell>
        <mxCell id="v3zuQs5FmdUC1LHhwogQ-154" value="43" style="ellipse;whiteSpace=wrap;html=1;aspect=fixed;" parent="1" vertex="1">
          <mxGeometry x="1035" y="523" width="40" height="40" as="geometry" />
        </mxCell>
        <mxCell id="v3zuQs5FmdUC1LHhwogQ-155" value="83" style="ellipse;whiteSpace=wrap;html=1;aspect=fixed;" parent="1" vertex="1">
          <mxGeometry x="679" y="603" width="40" height="40" as="geometry" />
        </mxCell>
        <mxCell id="v3zuQs5FmdUC1LHhwogQ-156" value="30" style="ellipse;whiteSpace=wrap;html=1;aspect=fixed;" parent="1" vertex="1">
          <mxGeometry x="836" y="603" width="40" height="40" as="geometry" />
        </mxCell>
        <mxCell id="v3zuQs5FmdUC1LHhwogQ-157" value="87" style="ellipse;whiteSpace=wrap;html=1;aspect=fixed;" parent="1" vertex="1">
          <mxGeometry x="995" y="603" width="40" height="40" as="geometry" />
        </mxCell>
        <mxCell id="v3zuQs5FmdUC1LHhwogQ-158" value="38" style="ellipse;whiteSpace=wrap;html=1;aspect=fixed;" parent="1" vertex="1">
          <mxGeometry x="1075" y="603" width="40" height="40" as="geometry" />
        </mxCell>
        <mxCell id="v3zuQs5FmdUC1LHhwogQ-159" value="55" style="ellipse;whiteSpace=wrap;html=1;aspect=fixed;" parent="1" vertex="1">
          <mxGeometry x="639" y="683" width="40" height="40" as="geometry" />
        </mxCell>
        <mxCell id="v3zuQs5FmdUC1LHhwogQ-160" value="79" style="ellipse;whiteSpace=wrap;html=1;aspect=fixed;" parent="1" vertex="1">
          <mxGeometry x="915" y="443" width="40" height="40" as="geometry" />
        </mxCell>
        <mxCell id="v3zuQs5FmdUC1LHhwogQ-161" value="79" style="ellipse;whiteSpace=wrap;html=1;aspect=fixed;" parent="1" vertex="1">
          <mxGeometry x="915" y="443" width="40" height="40" as="geometry" />
        </mxCell>
        <mxCell id="v3zuQs5FmdUC1LHhwogQ-162" value="66" style="ellipse;whiteSpace=wrap;html=1;aspect=fixed;" parent="1" vertex="1">
          <mxGeometry x="758" y="523" width="40" height="40" as="geometry" />
        </mxCell>
        <mxCell id="v3zuQs5FmdUC1LHhwogQ-163" value="43" style="ellipse;whiteSpace=wrap;html=1;aspect=fixed;" parent="1" vertex="1">
          <mxGeometry x="1035" y="523" width="40" height="40" as="geometry" />
        </mxCell>
        <mxCell id="v3zuQs5FmdUC1LHhwogQ-164" value="87" style="ellipse;whiteSpace=wrap;html=1;aspect=fixed;" parent="1" vertex="1">
          <mxGeometry x="995" y="603" width="40" height="40" as="geometry" />
        </mxCell>
        <mxCell id="v3zuQs5FmdUC1LHhwogQ-165" value="38" style="ellipse;whiteSpace=wrap;html=1;aspect=fixed;" parent="1" vertex="1">
          <mxGeometry x="1075" y="603" width="40" height="40" as="geometry" />
        </mxCell>
        <mxCell id="v3zuQs5FmdUC1LHhwogQ-166" value="" style="group" parent="1" vertex="1" connectable="0">
          <mxGeometry x="639" y="443" width="476" height="283" as="geometry" />
        </mxCell>
        <mxCell id="v3zuQs5FmdUC1LHhwogQ-167" style="rounded=0;orthogonalLoop=1;jettySize=auto;html=1;exitX=0.5;exitY=1;exitDx=0;exitDy=0;entryX=0.5;entryY=0;entryDx=0;entryDy=0;" parent="v3zuQs5FmdUC1LHhwogQ-166" source="v3zuQs5FmdUC1LHhwogQ-152" target="v3zuQs5FmdUC1LHhwogQ-153" edge="1">
          <mxGeometry relative="1" as="geometry" />
        </mxCell>
        <mxCell id="v3zuQs5FmdUC1LHhwogQ-168" style="edgeStyle=none;rounded=0;orthogonalLoop=1;jettySize=auto;html=1;exitX=0.5;exitY=1;exitDx=0;exitDy=0;entryX=0.5;entryY=0;entryDx=0;entryDy=0;" parent="v3zuQs5FmdUC1LHhwogQ-166" source="v3zuQs5FmdUC1LHhwogQ-152" target="v3zuQs5FmdUC1LHhwogQ-154" edge="1">
          <mxGeometry relative="1" as="geometry" />
        </mxCell>
        <mxCell id="v3zuQs5FmdUC1LHhwogQ-169" style="edgeStyle=none;rounded=0;orthogonalLoop=1;jettySize=auto;html=1;exitX=0.5;exitY=1;exitDx=0;exitDy=0;entryX=0.5;entryY=0;entryDx=0;entryDy=0;" parent="v3zuQs5FmdUC1LHhwogQ-166" source="v3zuQs5FmdUC1LHhwogQ-153" target="v3zuQs5FmdUC1LHhwogQ-155" edge="1">
          <mxGeometry relative="1" as="geometry" />
        </mxCell>
        <mxCell id="v3zuQs5FmdUC1LHhwogQ-170" style="edgeStyle=none;rounded=0;orthogonalLoop=1;jettySize=auto;html=1;exitX=0.5;exitY=1;exitDx=0;exitDy=0;entryX=0.5;entryY=0;entryDx=0;entryDy=0;" parent="v3zuQs5FmdUC1LHhwogQ-166" source="v3zuQs5FmdUC1LHhwogQ-153" target="v3zuQs5FmdUC1LHhwogQ-156" edge="1">
          <mxGeometry relative="1" as="geometry" />
        </mxCell>
        <mxCell id="v3zuQs5FmdUC1LHhwogQ-171" style="edgeStyle=none;rounded=0;orthogonalLoop=1;jettySize=auto;html=1;exitX=0.5;exitY=1;exitDx=0;exitDy=0;entryX=0.5;entryY=0;entryDx=0;entryDy=0;" parent="v3zuQs5FmdUC1LHhwogQ-166" source="v3zuQs5FmdUC1LHhwogQ-154" target="v3zuQs5FmdUC1LHhwogQ-157" edge="1">
          <mxGeometry relative="1" as="geometry" />
        </mxCell>
        <mxCell id="v3zuQs5FmdUC1LHhwogQ-172" style="edgeStyle=none;rounded=0;orthogonalLoop=1;jettySize=auto;html=1;exitX=0.5;exitY=1;exitDx=0;exitDy=0;entryX=0.5;entryY=0;entryDx=0;entryDy=0;" parent="v3zuQs5FmdUC1LHhwogQ-166" source="v3zuQs5FmdUC1LHhwogQ-154" target="v3zuQs5FmdUC1LHhwogQ-158" edge="1">
          <mxGeometry relative="1" as="geometry" />
        </mxCell>
        <mxCell id="v3zuQs5FmdUC1LHhwogQ-173" style="edgeStyle=none;rounded=0;orthogonalLoop=1;jettySize=auto;html=1;exitX=0.5;exitY=1;exitDx=0;exitDy=0;entryX=0.5;entryY=0;entryDx=0;entryDy=0;" parent="v3zuQs5FmdUC1LHhwogQ-166" source="v3zuQs5FmdUC1LHhwogQ-155" target="v3zuQs5FmdUC1LHhwogQ-159" edge="1">
          <mxGeometry relative="1" as="geometry" />
        </mxCell>
        <mxCell id="v3zuQs5FmdUC1LHhwogQ-174" value="83" style="ellipse;whiteSpace=wrap;html=1;aspect=fixed;" parent="v3zuQs5FmdUC1LHhwogQ-166" vertex="1">
          <mxGeometry x="80" y="240" width="40" height="40" as="geometry" />
        </mxCell>
        <mxCell id="v3zuQs5FmdUC1LHhwogQ-175" value="30" style="ellipse;whiteSpace=wrap;html=1;aspect=fixed;" parent="v3zuQs5FmdUC1LHhwogQ-166" vertex="1">
          <mxGeometry x="156" y="243" width="40" height="40" as="geometry" />
        </mxCell>
        <mxCell id="v3zuQs5FmdUC1LHhwogQ-176" value="49" style="ellipse;whiteSpace=wrap;html=1;aspect=fixed;" parent="v3zuQs5FmdUC1LHhwogQ-166" vertex="1">
          <mxGeometry x="236" y="243" width="40" height="40" as="geometry" />
        </mxCell>
        <mxCell id="v3zuQs5FmdUC1LHhwogQ-177" value="9" style="ellipse;whiteSpace=wrap;html=1;aspect=fixed;" parent="v3zuQs5FmdUC1LHhwogQ-166" vertex="1">
          <mxGeometry x="316" y="240" width="40" height="40" as="geometry" />
        </mxCell>
        <mxCell id="v3zuQs5FmdUC1LHhwogQ-178" value="79" style="ellipse;whiteSpace=wrap;html=1;aspect=fixed;" parent="v3zuQs5FmdUC1LHhwogQ-166" vertex="1">
          <mxGeometry x="276" width="40" height="40" as="geometry" />
        </mxCell>
        <mxCell id="v3zuQs5FmdUC1LHhwogQ-179" value="91" style="ellipse;whiteSpace=wrap;html=1;aspect=fixed;fillColor=#d5e8d4;strokeColor=#82b366;" parent="v3zuQs5FmdUC1LHhwogQ-166" vertex="1">
          <mxGeometry x="119" y="80" width="40" height="40" as="geometry" />
        </mxCell>
        <mxCell id="v3zuQs5FmdUC1LHhwogQ-180" value="87" style="ellipse;whiteSpace=wrap;html=1;aspect=fixed;fillColor=#d5e8d4;strokeColor=#82b366;" parent="v3zuQs5FmdUC1LHhwogQ-166" vertex="1">
          <mxGeometry x="396" y="80" width="40" height="40" as="geometry" />
        </mxCell>
        <mxCell id="v3zuQs5FmdUC1LHhwogQ-181" value="&lt;font color=&quot;#ff0000&quot;&gt;&lt;b&gt;43&lt;/b&gt;&lt;/font&gt;" style="ellipse;whiteSpace=wrap;html=1;aspect=fixed;" parent="v3zuQs5FmdUC1LHhwogQ-166" vertex="1">
          <mxGeometry x="356" y="160" width="40" height="40" as="geometry" />
        </mxCell>
        <mxCell id="v3zuQs5FmdUC1LHhwogQ-182" value="38" style="ellipse;whiteSpace=wrap;html=1;aspect=fixed;" parent="v3zuQs5FmdUC1LHhwogQ-166" vertex="1">
          <mxGeometry x="436" y="160" width="40" height="40" as="geometry" />
        </mxCell>
        <mxCell id="v3zuQs5FmdUC1LHhwogQ-183" value="72" style="ellipse;whiteSpace=wrap;html=1;aspect=fixed;" parent="v3zuQs5FmdUC1LHhwogQ-166" vertex="1">
          <mxGeometry x="197" y="160" width="40" height="40" as="geometry" />
        </mxCell>
        <mxCell id="v3zuQs5FmdUC1LHhwogQ-184" value="&lt;font color=&quot;#ff0000&quot;&gt;&lt;b&gt;66&lt;/b&gt;&lt;/font&gt;" style="ellipse;whiteSpace=wrap;html=1;aspect=fixed;" parent="v3zuQs5FmdUC1LHhwogQ-166" vertex="1">
          <mxGeometry x="40" y="160" width="40" height="40" as="geometry" />
        </mxCell>
        <mxCell id="v3zuQs5FmdUC1LHhwogQ-185" value="55" style="ellipse;whiteSpace=wrap;html=1;aspect=fixed;" parent="v3zuQs5FmdUC1LHhwogQ-166" vertex="1">
          <mxGeometry y="240" width="40" height="40" as="geometry" />
        </mxCell>
        <mxCell id="v3zuQs5FmdUC1LHhwogQ-186" style="edgeStyle=none;rounded=0;orthogonalLoop=1;jettySize=auto;html=1;exitX=0.5;exitY=1;exitDx=0;exitDy=0;entryX=0.5;entryY=0;entryDx=0;entryDy=0;" parent="1" source="v3zuQs5FmdUC1LHhwogQ-155" target="v3zuQs5FmdUC1LHhwogQ-174" edge="1">
          <mxGeometry relative="1" as="geometry" />
        </mxCell>
        <mxCell id="v3zuQs5FmdUC1LHhwogQ-187" style="edgeStyle=none;rounded=0;orthogonalLoop=1;jettySize=auto;html=1;exitX=0.5;exitY=1;exitDx=0;exitDy=0;entryX=0.5;entryY=0;entryDx=0;entryDy=0;" parent="1" source="v3zuQs5FmdUC1LHhwogQ-156" target="v3zuQs5FmdUC1LHhwogQ-175" edge="1">
          <mxGeometry relative="1" as="geometry" />
        </mxCell>
        <mxCell id="v3zuQs5FmdUC1LHhwogQ-188" value="" style="edgeStyle=none;rounded=0;orthogonalLoop=1;jettySize=auto;html=1;exitX=0.5;exitY=1;exitDx=0;exitDy=0;" parent="1" source="v3zuQs5FmdUC1LHhwogQ-156" target="v3zuQs5FmdUC1LHhwogQ-176" edge="1">
          <mxGeometry relative="1" as="geometry" />
        </mxCell>
        <mxCell id="v3zuQs5FmdUC1LHhwogQ-189" style="edgeStyle=none;rounded=0;orthogonalLoop=1;jettySize=auto;html=1;exitX=0.5;exitY=1;exitDx=0;exitDy=0;entryX=0.5;entryY=0;entryDx=0;entryDy=0;" parent="1" source="v3zuQs5FmdUC1LHhwogQ-157" target="v3zuQs5FmdUC1LHhwogQ-177" edge="1">
          <mxGeometry relative="1" as="geometry" />
        </mxCell>
        <mxCell id="v3zuQs5FmdUC1LHhwogQ-306" value="79" style="ellipse;whiteSpace=wrap;html=1;aspect=fixed;" parent="1" vertex="1">
          <mxGeometry x="396" y="443" width="40" height="40" as="geometry" />
        </mxCell>
        <mxCell id="v3zuQs5FmdUC1LHhwogQ-307" value="66" style="ellipse;whiteSpace=wrap;html=1;aspect=fixed;" parent="1" vertex="1">
          <mxGeometry x="239" y="523" width="40" height="40" as="geometry" />
        </mxCell>
        <mxCell id="v3zuQs5FmdUC1LHhwogQ-308" value="43" style="ellipse;whiteSpace=wrap;html=1;aspect=fixed;" parent="1" vertex="1">
          <mxGeometry x="516" y="523" width="40" height="40" as="geometry" />
        </mxCell>
        <mxCell id="v3zuQs5FmdUC1LHhwogQ-309" value="83" style="ellipse;whiteSpace=wrap;html=1;aspect=fixed;" parent="1" vertex="1">
          <mxGeometry x="160" y="603" width="40" height="40" as="geometry" />
        </mxCell>
        <mxCell id="v3zuQs5FmdUC1LHhwogQ-310" value="30" style="ellipse;whiteSpace=wrap;html=1;aspect=fixed;" parent="1" vertex="1">
          <mxGeometry x="317" y="603" width="40" height="40" as="geometry" />
        </mxCell>
        <mxCell id="v3zuQs5FmdUC1LHhwogQ-311" value="87" style="ellipse;whiteSpace=wrap;html=1;aspect=fixed;" parent="1" vertex="1">
          <mxGeometry x="476" y="603" width="40" height="40" as="geometry" />
        </mxCell>
        <mxCell id="v3zuQs5FmdUC1LHhwogQ-312" value="38" style="ellipse;whiteSpace=wrap;html=1;aspect=fixed;" parent="1" vertex="1">
          <mxGeometry x="556" y="603" width="40" height="40" as="geometry" />
        </mxCell>
        <mxCell id="v3zuQs5FmdUC1LHhwogQ-313" value="55" style="ellipse;whiteSpace=wrap;html=1;aspect=fixed;" parent="1" vertex="1">
          <mxGeometry x="120" y="683" width="40" height="40" as="geometry" />
        </mxCell>
        <mxCell id="v3zuQs5FmdUC1LHhwogQ-314" value="79" style="ellipse;whiteSpace=wrap;html=1;aspect=fixed;" parent="1" vertex="1">
          <mxGeometry x="396" y="443" width="40" height="40" as="geometry" />
        </mxCell>
        <mxCell id="v3zuQs5FmdUC1LHhwogQ-315" value="79" style="ellipse;whiteSpace=wrap;html=1;aspect=fixed;" parent="1" vertex="1">
          <mxGeometry x="396" y="443" width="40" height="40" as="geometry" />
        </mxCell>
        <mxCell id="v3zuQs5FmdUC1LHhwogQ-316" value="66" style="ellipse;whiteSpace=wrap;html=1;aspect=fixed;" parent="1" vertex="1">
          <mxGeometry x="239" y="523" width="40" height="40" as="geometry" />
        </mxCell>
        <mxCell id="v3zuQs5FmdUC1LHhwogQ-317" value="43" style="ellipse;whiteSpace=wrap;html=1;aspect=fixed;" parent="1" vertex="1">
          <mxGeometry x="516" y="523" width="40" height="40" as="geometry" />
        </mxCell>
        <mxCell id="v3zuQs5FmdUC1LHhwogQ-318" value="87" style="ellipse;whiteSpace=wrap;html=1;aspect=fixed;" parent="1" vertex="1">
          <mxGeometry x="476" y="603" width="40" height="40" as="geometry" />
        </mxCell>
        <mxCell id="v3zuQs5FmdUC1LHhwogQ-319" value="38" style="ellipse;whiteSpace=wrap;html=1;aspect=fixed;" parent="1" vertex="1">
          <mxGeometry x="556" y="603" width="40" height="40" as="geometry" />
        </mxCell>
        <mxCell id="v3zuQs5FmdUC1LHhwogQ-320" value="" style="group" parent="1" vertex="1" connectable="0">
          <mxGeometry x="120" y="443" width="476" height="283" as="geometry" />
        </mxCell>
        <mxCell id="v3zuQs5FmdUC1LHhwogQ-321" style="rounded=0;orthogonalLoop=1;jettySize=auto;html=1;exitX=0.5;exitY=1;exitDx=0;exitDy=0;entryX=0.5;entryY=0;entryDx=0;entryDy=0;" parent="v3zuQs5FmdUC1LHhwogQ-320" source="v3zuQs5FmdUC1LHhwogQ-306" target="v3zuQs5FmdUC1LHhwogQ-307" edge="1">
          <mxGeometry relative="1" as="geometry" />
        </mxCell>
        <mxCell id="v3zuQs5FmdUC1LHhwogQ-322" style="edgeStyle=none;rounded=0;orthogonalLoop=1;jettySize=auto;html=1;exitX=0.5;exitY=1;exitDx=0;exitDy=0;entryX=0.5;entryY=0;entryDx=0;entryDy=0;" parent="v3zuQs5FmdUC1LHhwogQ-320" source="v3zuQs5FmdUC1LHhwogQ-306" target="v3zuQs5FmdUC1LHhwogQ-308" edge="1">
          <mxGeometry relative="1" as="geometry" />
        </mxCell>
        <mxCell id="v3zuQs5FmdUC1LHhwogQ-323" style="edgeStyle=none;rounded=0;orthogonalLoop=1;jettySize=auto;html=1;exitX=0.5;exitY=1;exitDx=0;exitDy=0;entryX=0.5;entryY=0;entryDx=0;entryDy=0;" parent="v3zuQs5FmdUC1LHhwogQ-320" source="v3zuQs5FmdUC1LHhwogQ-307" target="v3zuQs5FmdUC1LHhwogQ-309" edge="1">
          <mxGeometry relative="1" as="geometry" />
        </mxCell>
        <mxCell id="v3zuQs5FmdUC1LHhwogQ-324" style="edgeStyle=none;rounded=0;orthogonalLoop=1;jettySize=auto;html=1;exitX=0.5;exitY=1;exitDx=0;exitDy=0;entryX=0.5;entryY=0;entryDx=0;entryDy=0;" parent="v3zuQs5FmdUC1LHhwogQ-320" source="v3zuQs5FmdUC1LHhwogQ-307" target="v3zuQs5FmdUC1LHhwogQ-310" edge="1">
          <mxGeometry relative="1" as="geometry" />
        </mxCell>
        <mxCell id="v3zuQs5FmdUC1LHhwogQ-325" style="edgeStyle=none;rounded=0;orthogonalLoop=1;jettySize=auto;html=1;exitX=0.5;exitY=1;exitDx=0;exitDy=0;entryX=0.5;entryY=0;entryDx=0;entryDy=0;" parent="v3zuQs5FmdUC1LHhwogQ-320" source="v3zuQs5FmdUC1LHhwogQ-308" target="v3zuQs5FmdUC1LHhwogQ-311" edge="1">
          <mxGeometry relative="1" as="geometry" />
        </mxCell>
        <mxCell id="v3zuQs5FmdUC1LHhwogQ-326" style="edgeStyle=none;rounded=0;orthogonalLoop=1;jettySize=auto;html=1;exitX=0.5;exitY=1;exitDx=0;exitDy=0;entryX=0.5;entryY=0;entryDx=0;entryDy=0;" parent="v3zuQs5FmdUC1LHhwogQ-320" source="v3zuQs5FmdUC1LHhwogQ-308" target="v3zuQs5FmdUC1LHhwogQ-312" edge="1">
          <mxGeometry relative="1" as="geometry" />
        </mxCell>
        <mxCell id="v3zuQs5FmdUC1LHhwogQ-327" style="edgeStyle=none;rounded=0;orthogonalLoop=1;jettySize=auto;html=1;exitX=0.5;exitY=1;exitDx=0;exitDy=0;entryX=0.5;entryY=0;entryDx=0;entryDy=0;" parent="v3zuQs5FmdUC1LHhwogQ-320" source="v3zuQs5FmdUC1LHhwogQ-309" target="v3zuQs5FmdUC1LHhwogQ-313" edge="1">
          <mxGeometry relative="1" as="geometry" />
        </mxCell>
        <mxCell id="v3zuQs5FmdUC1LHhwogQ-328" value="83" style="ellipse;whiteSpace=wrap;html=1;aspect=fixed;" parent="v3zuQs5FmdUC1LHhwogQ-320" vertex="1">
          <mxGeometry x="80" y="240" width="40" height="40" as="geometry" />
        </mxCell>
        <mxCell id="v3zuQs5FmdUC1LHhwogQ-329" value="30" style="ellipse;whiteSpace=wrap;html=1;aspect=fixed;" parent="v3zuQs5FmdUC1LHhwogQ-320" vertex="1">
          <mxGeometry x="156" y="243" width="40" height="40" as="geometry" />
        </mxCell>
        <mxCell id="v3zuQs5FmdUC1LHhwogQ-330" value="49" style="ellipse;whiteSpace=wrap;html=1;aspect=fixed;" parent="v3zuQs5FmdUC1LHhwogQ-320" vertex="1">
          <mxGeometry x="236" y="243" width="40" height="40" as="geometry" />
        </mxCell>
        <mxCell id="v3zuQs5FmdUC1LHhwogQ-331" value="9" style="ellipse;whiteSpace=wrap;html=1;aspect=fixed;" parent="v3zuQs5FmdUC1LHhwogQ-320" vertex="1">
          <mxGeometry x="316" y="240" width="40" height="40" as="geometry" />
        </mxCell>
        <mxCell id="v3zuQs5FmdUC1LHhwogQ-332" value="91" style="ellipse;whiteSpace=wrap;html=1;aspect=fixed;fillColor=#d5e8d4;strokeColor=#82b366;" parent="v3zuQs5FmdUC1LHhwogQ-320" vertex="1">
          <mxGeometry x="276" width="40" height="40" as="geometry" />
        </mxCell>
        <mxCell id="v3zuQs5FmdUC1LHhwogQ-333" value="&lt;font color=&quot;#ff0000&quot;&gt;&lt;b&gt;79&lt;/b&gt;&lt;/font&gt;" style="ellipse;whiteSpace=wrap;html=1;aspect=fixed;" parent="v3zuQs5FmdUC1LHhwogQ-320" vertex="1">
          <mxGeometry x="119" y="80" width="40" height="40" as="geometry" />
        </mxCell>
        <mxCell id="v3zuQs5FmdUC1LHhwogQ-334" value="87" style="ellipse;whiteSpace=wrap;html=1;aspect=fixed;" parent="v3zuQs5FmdUC1LHhwogQ-320" vertex="1">
          <mxGeometry x="396" y="80" width="40" height="40" as="geometry" />
        </mxCell>
        <mxCell id="v3zuQs5FmdUC1LHhwogQ-335" value="43" style="ellipse;whiteSpace=wrap;html=1;aspect=fixed;" parent="v3zuQs5FmdUC1LHhwogQ-320" vertex="1">
          <mxGeometry x="356" y="160" width="40" height="40" as="geometry" />
        </mxCell>
        <mxCell id="v3zuQs5FmdUC1LHhwogQ-336" value="38" style="ellipse;whiteSpace=wrap;html=1;aspect=fixed;" parent="v3zuQs5FmdUC1LHhwogQ-320" vertex="1">
          <mxGeometry x="436" y="160" width="40" height="40" as="geometry" />
        </mxCell>
        <mxCell id="v3zuQs5FmdUC1LHhwogQ-337" value="72" style="ellipse;whiteSpace=wrap;html=1;aspect=fixed;" parent="v3zuQs5FmdUC1LHhwogQ-320" vertex="1">
          <mxGeometry x="197" y="160" width="40" height="40" as="geometry" />
        </mxCell>
        <mxCell id="v3zuQs5FmdUC1LHhwogQ-338" value="66" style="ellipse;whiteSpace=wrap;html=1;aspect=fixed;" parent="v3zuQs5FmdUC1LHhwogQ-320" vertex="1">
          <mxGeometry x="40" y="160" width="40" height="40" as="geometry" />
        </mxCell>
        <mxCell id="v3zuQs5FmdUC1LHhwogQ-339" value="55" style="ellipse;whiteSpace=wrap;html=1;aspect=fixed;" parent="v3zuQs5FmdUC1LHhwogQ-320" vertex="1">
          <mxGeometry y="240" width="40" height="40" as="geometry" />
        </mxCell>
        <mxCell id="v3zuQs5FmdUC1LHhwogQ-340" style="edgeStyle=none;rounded=0;orthogonalLoop=1;jettySize=auto;html=1;exitX=0.5;exitY=1;exitDx=0;exitDy=0;entryX=0.5;entryY=0;entryDx=0;entryDy=0;" parent="1" source="v3zuQs5FmdUC1LHhwogQ-309" target="v3zuQs5FmdUC1LHhwogQ-328" edge="1">
          <mxGeometry relative="1" as="geometry" />
        </mxCell>
        <mxCell id="v3zuQs5FmdUC1LHhwogQ-341" style="edgeStyle=none;rounded=0;orthogonalLoop=1;jettySize=auto;html=1;exitX=0.5;exitY=1;exitDx=0;exitDy=0;entryX=0.5;entryY=0;entryDx=0;entryDy=0;" parent="1" source="v3zuQs5FmdUC1LHhwogQ-310" target="v3zuQs5FmdUC1LHhwogQ-329" edge="1">
          <mxGeometry relative="1" as="geometry" />
        </mxCell>
        <mxCell id="v3zuQs5FmdUC1LHhwogQ-342" value="" style="edgeStyle=none;rounded=0;orthogonalLoop=1;jettySize=auto;html=1;exitX=0.5;exitY=1;exitDx=0;exitDy=0;" parent="1" source="v3zuQs5FmdUC1LHhwogQ-310" target="v3zuQs5FmdUC1LHhwogQ-330" edge="1">
          <mxGeometry relative="1" as="geometry" />
        </mxCell>
        <mxCell id="v3zuQs5FmdUC1LHhwogQ-343" style="edgeStyle=none;rounded=0;orthogonalLoop=1;jettySize=auto;html=1;exitX=0.5;exitY=1;exitDx=0;exitDy=0;entryX=0.5;entryY=0;entryDx=0;entryDy=0;" parent="1" source="v3zuQs5FmdUC1LHhwogQ-311" target="v3zuQs5FmdUC1LHhwogQ-331" edge="1">
          <mxGeometry relative="1" as="geometry" />
        </mxCell>
        <mxCell id="v3zuQs5FmdUC1LHhwogQ-344" value="" style="endArrow=classic;html=1;rounded=0;fontColor=#000000;strokeWidth=6;" parent="1" edge="1">
          <mxGeometry width="50" height="50" relative="1" as="geometry">
            <mxPoint x="600" y="200" as="sourcePoint" />
            <mxPoint x="680" y="200" as="targetPoint" />
          </mxGeometry>
        </mxCell>
        <mxCell id="v3zuQs5FmdUC1LHhwogQ-345" value="" style="endArrow=classic;html=1;rounded=0;fontColor=#000000;strokeWidth=6;" parent="1" edge="1">
          <mxGeometry width="50" height="50" relative="1" as="geometry">
            <mxPoint x="938" y="367" as="sourcePoint" />
            <mxPoint x="938" y="437" as="targetPoint" />
          </mxGeometry>
        </mxCell>
        <mxCell id="v3zuQs5FmdUC1LHhwogQ-346" value="" style="endArrow=classic;html=1;rounded=0;fontColor=#000000;strokeWidth=6;" parent="1" edge="1">
          <mxGeometry width="50" height="50" relative="1" as="geometry">
            <mxPoint x="680" y="560" as="sourcePoint" />
            <mxPoint x="600" y="560" as="targetPoint" />
            <Array as="points">
              <mxPoint x="650" y="560" />
            </Array>
          </mxGeometry>
        </mxCell>
        <mxCell id="v3zuQs5FmdUC1LHhwogQ-350" value="&lt;font color=&quot;#000000&quot;&gt;&lt;b&gt;堆建立调整过程&lt;/b&gt;&lt;/font&gt;" style="text;html=1;strokeColor=none;fillColor=none;align=left;verticalAlign=middle;whiteSpace=wrap;rounded=0;fontColor=#FF0000;" parent="1" vertex="1">
          <mxGeometry x="90" y="40" width="310" height="40" as="geometry" />
        </mxCell>
      </root>
    </mxGraphModel>
  </diagram>
</mxfile>
